<?xml version="1.0" standalone="no"?>
<!DOCTYPE svg PUBLIC "-//W3C//DTD SVG 20010904//EN"
 "http://www.w3.org/TR/2001/REC-SVG-20010904/DTD/svg10.dtd">
<svg version="1.0" xmlns="http://www.w3.org/2000/svg"
 width="380.000000pt" height="380.000000pt" viewBox="0 0 380.000000 380.000000"
 preserveAspectRatio="xMidYMid meet">
<metadata>
Created by potrace 1.14, written by Peter Selinger 2001-2017
</metadata>
<g transform="translate(0.000000,380.000000) scale(0.100000,-0.100000)"
fill="#000000" stroke="none">
<path d="M0 1900 l0 -1900 1900 0 1900 0 0 1900 0 1900 -1900 0 -1900 0 0
-1900z m2091 1761 c72 -23 162 -82 201 -133 47 -62 115 -221 106 -249 -2 -6
-27 23 -55 64 -76 109 -134 164 -211 200 -64 30 -73 32 -187 32 -106 0 -126
-3 -168 -24 -138 -67 -276 -264 -321 -456 -13 -53 -68 -592 -62 -602 1 -1 56
9 121 22 255 51 586 59 827 19 44 -7 39 -24 62 226 19 194 43 295 97 408 101
209 283 304 589 306 113 1 146 -3 205 -21 77 -24 167 -83 207 -135 47 -62 115
-221 106 -249 -2 -6 -27 23 -55 64 -76 109 -134 164 -211 200 -64 30 -73 32
-187 32 -106 0 -126 -3 -168 -24 -136 -67 -274 -262 -320 -451 -14 -57 -52
-410 -45 -415 2 -1 39 -14 83 -29 221 -78 392 -202 456 -333 34 -68 34 -178 0
-246 -79 -162 -292 -293 -616 -382 -6 -2 -22 -138 -38 -331 -16 -181 -33 -369
-38 -419 -42 -378 -196 -583 -481 -640 -96 -19 -314 -20 -383 -1 -169 45 -282
166 -328 351 l-15 60 21 -29 c12 -16 48 -64 79 -106 94 -126 187 -178 339
-187 109 -7 176 12 258 72 110 81 212 249 251 415 16 66 85 759 77 766 -1 1
-47 -3 -102 -8 -127 -12 -429 -3 -560 17 -55 8 -147 27 -204 40 -57 14 -106
24 -108 21 -2 -2 -15 -131 -29 -287 -13 -156 -31 -322 -39 -369 -42 -250 -142
-409 -309 -490 -44 -22 -116 -46 -158 -55 -96 -19 -314 -20 -383 -1 -169 45
-282 166 -328 351 l-15 60 21 -29 c12 -16 48 -64 79 -106 94 -126 187 -178
339 -187 109 -7 176 12 256 70 109 81 213 249 252 412 18 70 72 619 71 710 -1
26 -9 35 -66 70 -79 48 -172 144 -205 211 -34 69 -34 179 0 247 46 94 157 194
288 261 62 31 55 4 83 341 36 435 51 518 121 663 105 217 315 319 634 307 63
-2 124 -11 166 -24z"/>
<path d="M1735 2424 c-218 -31 -355 -63 -355 -83 0 -9 -14 -169 -30 -355 -16
-187 -28 -341 -27 -343 7 -6 199 -53 287 -70 77 -14 149 -18 382 -18 181 0
291 4 297 10 11 11 85 824 77 833 -16 16 -121 24 -346 27 -140 2 -268 1 -285
-1z"/>
<path d="M2606 2303 c-12 -85 -58 -674 -53 -680 9 -8 178 52 256 92 203 102
291 233 235 350 -23 48 -97 121 -167 163 -59 36 -195 97 -238 107 -25 6 -27 4
-33 -32z"/>
<path d="M1062 2214 c-67 -44 -125 -104 -146 -148 -21 -44 -20 -109 1 -153 18
-39 96 -119 140 -145 l30 -17 17 202 c9 111 19 223 23 250 3 26 2 47 -3 47 -5
0 -33 -16 -62 -36z"/>
</g>
</svg>
